<?xml version="1.0" encoding="UTF-8"?>
<svg version="1.1" xmlns="http://www.w3.org/2000/svg" width="192" height="192">
<path d="M0 0 C2.9375 1.875 2.9375 1.875 5 4 C5 4.66 5 5.32 5 6 C5.66 6 6.32 6 7 6 C8.79539556 8.0897227 10.47061442 10.17842082 12.125 12.375 C12.82689453 13.27992187 12.82689453 13.27992187 13.54296875 14.203125 C17 18.73858874 17 18.73858874 17 21 C17.99 21.33 18.98 21.66 20 22 C21.6484375 24.109375 21.6484375 24.109375 23.375 26.75 C25.98472333 30.60737811 28.66207059 33.7434835 32 37 C34.73182304 40.28173547 37.3596767 43.64448709 40 47 C41.33175595 48.66792735 42.6650681 50.33461344 44 52 C44.6496875 52.8146875 45.299375 53.629375 45.96875 54.46875 C47.39625963 56.24764662 48.83477537 58.01773984 50.28125 59.78125 C51.0134375 60.6784375 51.745625 61.575625 52.5 62.5 C53.1703125 63.3146875 53.840625 64.129375 54.53125 64.96875 C56 67 56 67 56 69 C56.66 69 57.32 69 58 69 C62 75.06060606 62 75.06060606 62 79.125 C60.64131 83.03123376 58.77438417 86.11280791 55 88 C50.76028942 88.23553948 47.63821698 88.32845886 44 86 C44 85.34 44 84.68 44 84 C43.34 84 42.68 84 42 84 C40.37695029 82.07526818 38.86798686 80.14718585 37.375 78.125 C36.48001236 76.9355611 35.58416734 75.7467669 34.6875 74.55859375 C34.23890625 73.96159668 33.7903125 73.36459961 33.328125 72.74951172 C30.30420758 68.76616755 27.14314478 64.88942217 24 61 C23.21625 61.825 22.4325 62.65 21.625 63.5 C19 66 19 66 17 66 C16.66935547 66.7734375 16.66935547 66.7734375 16.33203125 67.5625 C14.46069155 70.98688703 12.09788917 73.93979808 9.6875 77 C9.21376953 77.61617188 8.74003906 78.23234375 8.25195312 78.8671875 C4.96245823 83.06118099 1.70743972 86.9312738 -3.375 88.9375 C-7.22760237 89.02922863 -9.65618878 87.8576729 -13 86 C-15.49496616 83.19316307 -15.96311776 81.61470392 -16.1875 77.875 C-15.10265478 72.18586985 -10.74341285 67.23334827 -7 63 C-6.34 63 -5.68 63 -5 63 C-4.731875 62.42765625 -4.46375 61.8553125 -4.1875 61.265625 C-2.95867364 58.92115366 -1.57477824 56.87595062 0 54.75 C0.515625 54.04359375 1.03125 53.3371875 1.5625 52.609375 C2.036875 52.07828125 2.51125 51.5471875 3 51 C3.66 51 4.32 51 5 51 C5.28875 50.4225 5.5775 49.845 5.875 49.25 C6.91666667 47.16666667 7.95833333 45.08333333 9 43 C8.34 42.21625 7.68 41.4325 7 40.625 C5 38 5 38 5 36 C4.34 36 3.68 36 3 36 C1.20460444 33.9102773 -0.47061442 31.82157918 -2.125 29.625 C-2.59292969 29.02171875 -3.06085938 28.4184375 -3.54296875 27.796875 C-7 23.26141126 -7 23.26141126 -7 21 C-7.99 20.67 -8.98 20.34 -10 20 C-13.06803906 17.04996245 -13.63876951 14.05115964 -13.99609375 9.9609375 C-14.00171611 7.13851032 -13.50336628 5.39171908 -12 3 C-8.13353772 -0.20364017 -4.93185301 -0.61648163 0 0 Z " fill="#AC1826" transform="translate(109,48)"/>
<path d="M0 0 C1.65742218 -0.01925285 1.65742218 -0.01925285 3.34832764 -0.03889465 C5.15445526 -0.04997505 5.15445526 -0.04997505 6.99707031 -0.0612793 C8.22677551 -0.06935104 9.45648071 -0.07742279 10.72344971 -0.08573914 C13.33287131 -0.09960144 15.9423112 -0.11031393 18.55175781 -0.11816406 C21.22712012 -0.12701857 23.90196207 -0.14787315 26.57714844 -0.1796875 C30.42561617 -0.22225273 34.27339672 -0.23852023 38.12207031 -0.2487793 C39.31805847 -0.26628738 40.51404663 -0.28379547 41.74627686 -0.30183411 C50.04843214 -0.28010052 50.04843214 -0.28010052 54.05664062 2.07861328 C57.10295483 5.69306257 57.15514085 8.3817776 57.11816406 12.98168945 C56.82519531 15.17700195 56.82519531 15.17700195 54.95019531 17.67700195 C51.5731429 20.06080365 49.64485765 20.31570526 45.53686523 20.36987305 C44.43199265 20.38593597 43.32712006 20.4019989 42.18876648 20.41854858 C37.13358108 20.4629223 32.07852787 20.50405996 27.02319336 20.52709961 C24.3542797 20.54043483 21.68717344 20.57095997 19.01831055 20.60913086 C15.17636018 20.66381547 11.33545088 20.68576182 7.49316406 20.70043945 C6.30031296 20.72310883 5.10746185 20.7457782 3.87846375 20.76913452 C-5.33444182 20.74557136 -5.33444182 20.74557136 -8.40405273 17.70678711 C-8.98840088 16.87195801 -9.57274902 16.03712891 -10.17480469 15.17700195 C-10.50480469 14.84700195 -10.83480469 14.51700195 -11.17480469 14.17700195 C-11.46803335 11.24471532 -11.67484715 9.03208313 -11.17480469 6.17700195 C-8.73730469 3.23950195 -8.73730469 3.23950195 -6.17480469 1.17700195 C-4.47932522 -0.51847752 -2.32196571 0.02338328 0 0 Z " fill="#AC1826" transform="translate(26.1748046875,116.822998046875)"/>
<path d="M0 0 C1.62727776 -0.01925285 1.62727776 -0.01925285 3.28742981 -0.03889465 C5.05300484 -0.04997505 5.05300484 -0.04997505 6.85424805 -0.0612793 C8.06034225 -0.06935104 9.26643646 -0.07742279 10.50907898 -0.08573914 C13.06544554 -0.09958904 15.62183066 -0.11030712 18.17822266 -0.11816406 C22.08946734 -0.1353814 25.99986802 -0.17926181 29.91088867 -0.22338867 C32.39200223 -0.23351485 34.873123 -0.24203118 37.35424805 -0.2487793 C38.52522537 -0.26628738 39.6962027 -0.28379547 40.90266418 -0.30183411 C49.03051096 -0.2801048 49.03051096 -0.2801048 53.01904297 2.07861328 C55.48094664 4.97368266 56.01523207 6.75393798 56.1784668 10.48950195 C56.22745117 11.24875977 56.27643555 12.00801758 56.3269043 12.7902832 C55.72506224 15.53450334 54.71979525 17.16725593 52.68569946 19.10560608 C48.3404259 21.57900283 42.87456208 20.85928303 38.0222168 20.8059082 C36.15285461 20.80952614 36.15285461 20.80952614 34.24572754 20.81321716 C30.93953556 20.81198807 27.63453637 20.78695353 24.32855225 20.753479 C22.30510354 20.73951325 20.28249509 20.74308201 18.2590332 20.75341797 C14.36720451 20.77219037 10.47652484 20.76276535 6.5847168 20.7434082 C5.37940308 20.74836807 4.17408936 20.75332794 2.93225098 20.75843811 C-5.41055518 20.64096379 -5.41055518 20.64096379 -9.43286133 18.26660156 C-12.20732608 14.97941388 -12.58738138 12.54362593 -12.5559082 8.21606445 C-11.95330301 4.79693497 -9.82867254 3.24511143 -7.1965332 1.17700195 C-4.65584515 -0.09334207 -2.84441712 0.02924247 0 0 Z " fill="#AD1826" transform="translate(27.196533203125,47.822998046875)"/>
<path d="M0 0 C1.10810028 -0.00637985 2.21620056 -0.0127597 3.35787964 -0.01933289 C4.55994049 -0.02044571 5.76200134 -0.02155853 7.00048828 -0.02270508 C8.23115021 -0.02603348 9.46181213 -0.02936188 10.72976685 -0.03279114 C13.33741888 -0.03786198 15.94507742 -0.04019942 18.55273438 -0.04003906 C21.2279332 -0.0399577 23.90296121 -0.04691224 26.578125 -0.06054688 C30.42729964 -0.07883105 34.2762746 -0.0837741 38.12548828 -0.08520508 C39.32350067 -0.09239059 40.52151306 -0.09957611 41.75582886 -0.10697937 C42.87023346 -0.10390274 43.98463806 -0.10082611 45.1328125 -0.09765625 C46.11273163 -0.09908127 47.09265076 -0.10050629 48.1022644 -0.10197449 C50.83639399 0.15866622 52.41254285 0.63922456 54.69580078 2.14526367 C56.72735135 5.19258952 57.01140143 6.03946173 57.07080078 9.52026367 C57.09916016 10.27049805 57.12751953 11.02073242 57.15673828 11.79370117 C56.50181081 15.1349413 55.05807251 16.72188925 52.69580078 19.14526367 C50.00856018 19.78018188 50.00856018 19.78018188 46.9050293 19.79223633 C45.74024551 19.80799713 44.57546173 19.82375793 43.37538147 19.83999634 C42.12115891 19.82987518 40.86693634 19.81975403 39.57470703 19.80932617 C38.28265854 19.8141098 36.99061005 19.81889343 35.65940857 19.82382202 C32.92636176 19.8311859 30.19413315 19.82050759 27.46118164 19.79711914 C23.965838 19.76865709 20.47241612 19.78501782 16.97714329 19.81498146 C13.63451259 19.83744752 10.29239226 19.82169284 6.94970703 19.80932617 C5.07140953 19.8245079 5.07140953 19.8245079 3.15516663 19.83999634 C-6.4953372 19.70976686 -6.4953372 19.70976686 -9.59326172 16.73266602 C-11.74529636 13.47820496 -11.97327944 11.85377699 -11.73779297 8.07885742 C-11.05614529 5.03907721 -9.50187634 3.27830323 -7.30419922 1.14526367 C-4.73167742 -0.14099723 -2.88044309 0.01122289 0 0 Z " fill="#AD1826" transform="translate(26.30419921875,82.854736328125)"/>
<path d="M0 0 C2.8100346 1.79363911 4.50940468 3.01880935 6 6 C6.40601504 14.39097744 6.40601504 14.39097744 4 18 C3.34 18 2.68 18 2 18 C2 18.66 2 19.32 2 20 C-1.60572704 21.20190901 -4.2102435 21.32670315 -8 21 C-10.93896083 19.2366235 -12.5637947 17.66379067 -14.4375 14.8125 C-15.28399699 10.58001504 -14.60625678 6.98874292 -13 3 C-9.36819759 -0.5249847 -4.84436175 -0.91015281 0 0 Z " fill="#585858" transform="translate(163,48)"/>
</svg>
